<svg width="24" height="16" viewBox="0 0 24 16" fill="none" xmlns="http://www.w3.org/2000/svg">
<path d="M1.93555 6.77441C1.38326 6.77441 0.935547 7.22213 0.935547 7.77441C0.935547 8.3267 1.38326 8.77441 1.93555 8.77441V6.77441ZM22.7717 8.48152C23.1622 8.091 23.1622 7.45783 22.7717 7.06731L16.4077 0.703346C16.0172 0.312822 15.384 0.312822 14.9935 0.703346C14.603 1.09387 14.603 1.72704 14.9935 2.11756L20.6504 7.77441L14.9935 13.4313C14.603 13.8218 14.603 14.455 14.9935 14.8455C15.384 15.236 16.0172 15.236 16.4077 14.8455L22.7717 8.48152ZM1.93555 8.77441H22.0646V6.77441H1.93555V8.77441Z" fill="#1E1B1B"/>
</svg>
