<svg width="181" height="56" viewBox="0 0 181 56" fill="none" xmlns="http://www.w3.org/2000/svg">
<path d="M57.519 47V36.11L55.08 37.595V35.498L57.519 34.04H59.436V47H57.519ZM67.0028 47.27C66.1568 47.27 65.4068 47.102 64.7528 46.766C64.1048 46.424 63.5948 45.95 63.2228 45.344C62.8568 44.738 62.6738 44.036 62.6738 43.238C62.6738 42.494 62.8478 41.813 63.1958 41.195C63.5438 40.577 64.0628 40.091 64.7528 39.737L64.7168 40.385C64.1648 40.043 63.7388 39.617 63.4388 39.107C63.1448 38.591 62.9978 38.015 62.9978 37.379C62.9978 36.641 63.1688 36.002 63.5108 35.462C63.8528 34.922 64.3238 34.505 64.9238 34.211C65.5298 33.917 66.2228 33.77 67.0028 33.77C67.7828 33.77 68.4728 33.917 69.0728 34.211C69.6728 34.505 70.1438 34.922 70.4858 35.462C70.8278 36.002 70.9988 36.641 70.9988 37.379C70.9988 38.015 70.8578 38.588 70.5758 39.098C70.2938 39.608 69.8618 40.037 69.2798 40.385L69.2528 39.755C69.9368 40.091 70.4558 40.571 70.8098 41.195C71.1638 41.813 71.3408 42.494 71.3408 43.238C71.3408 44.036 71.1548 44.738 70.7828 45.344C70.4108 45.95 69.8978 46.424 69.2438 46.766C68.5898 47.102 67.8428 47.27 67.0028 47.27ZM67.0028 45.479C67.6988 45.479 68.2628 45.29 68.6948 44.912C69.1268 44.528 69.3428 43.97 69.3428 43.238C69.3428 42.506 69.1268 41.948 68.6948 41.564C68.2688 41.174 67.7048 40.979 67.0028 40.979C66.3008 40.979 65.7338 41.174 65.3018 41.564C64.8758 41.948 64.6628 42.506 64.6628 43.238C64.6628 43.97 64.8788 44.528 65.3108 44.912C65.7428 45.29 66.3068 45.479 67.0028 45.479ZM67.0028 39.179C67.5968 39.179 68.0768 39.032 68.4428 38.738C68.8148 38.438 69.0008 37.985 69.0008 37.379C69.0008 36.773 68.8148 36.32 68.4428 36.02C68.0768 35.714 67.5968 35.561 67.0028 35.561C66.4088 35.561 65.9258 35.714 65.5538 36.02C65.1818 36.32 64.9958 36.773 64.9958 37.379C64.9958 37.985 65.1818 38.438 65.5538 38.738C65.9258 39.032 66.4088 39.179 67.0028 39.179ZM78.1999 47.27C77.3179 47.27 76.5379 47.078 75.8599 46.694C75.1819 46.304 74.6479 45.77 74.2579 45.092C73.8739 44.414 73.6819 43.634 73.6819 42.752V38.288C73.6819 37.406 73.8739 36.626 74.2579 35.948C74.6479 35.27 75.1819 34.739 75.8599 34.355C76.5379 33.965 77.3179 33.77 78.1999 33.77C79.0819 33.77 79.8619 33.965 80.5399 34.355C81.2179 34.739 81.7489 35.27 82.1329 35.948C82.5229 36.626 82.7179 37.406 82.7179 38.288V42.752C82.7179 43.634 82.5229 44.414 82.1329 45.092C81.7489 45.77 81.2179 46.304 80.5399 46.694C79.8619 47.078 79.0819 47.27 78.1999 47.27ZM78.1999 45.47C78.6799 45.47 79.1149 45.356 79.5049 45.128C79.9009 44.894 80.2159 44.582 80.4499 44.192C80.6839 43.796 80.8009 43.355 80.8009 42.869V38.153C80.8009 37.673 80.6839 37.238 80.4499 36.848C80.2159 36.452 79.9009 36.14 79.5049 35.912C79.1149 35.678 78.6799 35.561 78.1999 35.561C77.7199 35.561 77.2819 35.678 76.8859 35.912C76.4959 36.14 76.1839 36.452 75.9499 36.848C75.7159 37.238 75.5989 37.673 75.5989 38.153V42.869C75.5989 43.355 75.7159 43.796 75.9499 44.192C76.1839 44.582 76.4959 44.894 76.8859 45.128C77.2819 45.356 77.7199 45.47 78.1999 45.47ZM89.7487 47.27C88.8667 47.27 88.0867 47.078 87.4087 46.694C86.7307 46.304 86.1967 45.77 85.8067 45.092C85.4227 44.414 85.2307 43.634 85.2307 42.752V38.288C85.2307 37.406 85.4227 36.626 85.8067 35.948C86.1967 35.27 86.7307 34.739 87.4087 34.355C88.0867 33.965 88.8667 33.77 89.7487 33.77C90.6307 33.77 91.4107 33.965 92.0887 34.355C92.7667 34.739 93.2977 35.27 93.6817 35.948C94.0717 36.626 94.2667 37.406 94.2667 38.288V42.752C94.2667 43.634 94.0717 44.414 93.6817 45.092C93.2977 45.77 92.7667 46.304 92.0887 46.694C91.4107 47.078 90.6307 47.27 89.7487 47.27ZM89.7487 45.47C90.2287 45.47 90.6637 45.356 91.0537 45.128C91.4497 44.894 91.7647 44.582 91.9987 44.192C92.2327 43.796 92.3497 43.355 92.3497 42.869V38.153C92.3497 37.673 92.2327 37.238 91.9987 36.848C91.7647 36.452 91.4497 36.14 91.0537 35.912C90.6637 35.678 90.2287 35.561 89.7487 35.561C89.2687 35.561 88.8307 35.678 88.4347 35.912C88.0447 36.14 87.7327 36.452 87.4987 36.848C87.2647 37.238 87.1477 37.673 87.1477 38.153V42.869C87.1477 43.355 87.2647 43.796 87.4987 44.192C87.7327 44.582 88.0447 44.894 88.4347 45.128C88.8307 45.356 89.2687 45.47 89.7487 45.47ZM100.023 46.991L100.032 45.317L105.675 40.259C106.131 39.857 106.44 39.473 106.602 39.107C106.77 38.741 106.854 38.375 106.854 38.009C106.854 37.547 106.752 37.133 106.548 36.767C106.344 36.395 106.062 36.101 105.702 35.885C105.342 35.669 104.928 35.561 104.46 35.561C103.98 35.561 103.551 35.675 103.173 35.903C102.801 36.125 102.51 36.422 102.3 36.794C102.09 37.166 101.988 37.568 101.994 38H100.068C100.068 37.16 100.257 36.425 100.635 35.795C101.019 35.159 101.544 34.664 102.21 34.31C102.876 33.95 103.638 33.77 104.496 33.77C105.312 33.77 106.044 33.956 106.692 34.328C107.34 34.694 107.85 35.198 108.222 35.84C108.6 36.482 108.789 37.214 108.789 38.036C108.789 38.63 108.711 39.134 108.555 39.548C108.399 39.962 108.165 40.346 107.853 40.7C107.541 41.054 107.151 41.438 106.683 41.852L102.327 45.74L102.12 45.2H108.789V46.991H100.023ZM115.403 47.27C114.563 47.27 113.807 47.072 113.135 46.676C112.463 46.274 111.929 45.725 111.533 45.029C111.143 44.333 110.948 43.541 110.948 42.653V38.522C110.948 37.58 111.143 36.752 111.533 36.038C111.929 35.324 112.475 34.769 113.171 34.373C113.873 33.977 114.68 33.779 115.592 33.779C116.276 33.779 116.918 33.908 117.518 34.166C118.118 34.424 118.637 34.808 119.075 35.318L117.698 36.605C117.452 36.287 117.143 36.035 116.771 35.849C116.405 35.657 116.012 35.561 115.592 35.561C115.052 35.561 114.578 35.69 114.17 35.948C113.762 36.2 113.441 36.533 113.207 36.947C112.979 37.361 112.865 37.805 112.865 38.279V40.655L112.496 40.241C112.868 39.755 113.33 39.371 113.882 39.089C114.434 38.807 115.025 38.666 115.655 38.666C116.459 38.666 117.176 38.855 117.806 39.233C118.442 39.605 118.94 40.112 119.3 40.754C119.666 41.396 119.849 42.119 119.849 42.923C119.849 43.733 119.645 44.468 119.237 45.128C118.835 45.782 118.295 46.304 117.617 46.694C116.945 47.078 116.207 47.27 115.403 47.27ZM115.403 45.461C115.871 45.461 116.297 45.347 116.681 45.119C117.065 44.891 117.371 44.585 117.599 44.201C117.827 43.817 117.941 43.391 117.941 42.923C117.941 42.455 117.827 42.029 117.599 41.645C117.377 41.261 117.074 40.955 116.69 40.727C116.306 40.499 115.88 40.385 115.412 40.385C114.944 40.385 114.515 40.499 114.125 40.727C113.741 40.955 113.435 41.261 113.207 41.645C112.979 42.029 112.865 42.455 112.865 42.923C112.865 43.385 112.979 43.808 113.207 44.192C113.435 44.576 113.741 44.885 114.125 45.119C114.509 45.347 114.935 45.461 115.403 45.461ZM125.97 47.27C125.304 47.27 124.683 47.135 124.107 46.865C123.537 46.589 123.048 46.211 122.64 45.731C122.232 45.245 121.941 44.687 121.767 44.057L123.576 43.571C123.678 43.955 123.852 44.288 124.098 44.57C124.35 44.852 124.644 45.071 124.98 45.227C125.316 45.377 125.664 45.452 126.024 45.452C126.498 45.452 126.927 45.338 127.311 45.11C127.701 44.882 128.007 44.576 128.229 44.192C128.457 43.808 128.571 43.385 128.571 42.923C128.571 42.449 128.454 42.02 128.22 41.636C127.992 41.252 127.683 40.949 127.293 40.727C126.909 40.499 126.486 40.385 126.024 40.385C125.496 40.385 125.049 40.49 124.683 40.7C124.317 40.91 124.032 41.153 123.828 41.429L122.19 40.853L122.586 34.04H129.579V35.813H123.549L124.314 35.102L123.999 40.205L123.63 39.728C123.972 39.386 124.38 39.125 124.854 38.945C125.328 38.765 125.799 38.675 126.267 38.675C127.071 38.675 127.788 38.861 128.418 39.233C129.054 39.605 129.555 40.112 129.921 40.754C130.287 41.39 130.47 42.113 130.47 42.923C130.47 43.727 130.263 44.459 129.849 45.119C129.435 45.773 128.886 46.295 128.202 46.685C127.518 47.075 126.774 47.27 125.97 47.27ZM135.865 46.991L135.874 45.317L141.517 40.259C141.973 39.857 142.282 39.473 142.444 39.107C142.612 38.741 142.696 38.375 142.696 38.009C142.696 37.547 142.594 37.133 142.39 36.767C142.186 36.395 141.904 36.101 141.544 35.885C141.184 35.669 140.77 35.561 140.302 35.561C139.822 35.561 139.393 35.675 139.015 35.903C138.643 36.125 138.352 36.422 138.142 36.794C137.932 37.166 137.83 37.568 137.836 38H135.91C135.91 37.16 136.099 36.425 136.477 35.795C136.861 35.159 137.386 34.664 138.052 34.31C138.718 33.95 139.48 33.77 140.338 33.77C141.154 33.77 141.886 33.956 142.534 34.328C143.182 34.694 143.692 35.198 144.064 35.84C144.442 36.482 144.631 37.214 144.631 38.036C144.631 38.63 144.553 39.134 144.397 39.548C144.241 39.962 144.007 40.346 143.695 40.7C143.383 41.054 142.993 41.438 142.525 41.852L138.169 45.74L137.962 45.2H144.631V46.991H135.865ZM151.928 47V44.741H146.078V42.959L150.29 34.04H152.441L148.229 42.959H151.928V39.449H153.836V42.959H155.123V44.741H153.836V47H151.928ZM164.73 47.27C164.064 47.27 163.443 47.135 162.867 46.865C162.297 46.589 161.808 46.211 161.4 45.731C160.992 45.245 160.701 44.687 160.527 44.057L162.336 43.571C162.438 43.955 162.612 44.288 162.858 44.57C163.11 44.852 163.404 45.071 163.74 45.227C164.076 45.377 164.424 45.452 164.784 45.452C165.258 45.452 165.687 45.338 166.071 45.11C166.461 44.882 166.767 44.576 166.989 44.192C167.217 43.808 167.331 43.385 167.331 42.923C167.331 42.449 167.214 42.02 166.98 41.636C166.752 41.252 166.443 40.949 166.053 40.727C165.669 40.499 165.246 40.385 164.784 40.385C164.256 40.385 163.809 40.49 163.443 40.7C163.077 40.91 162.792 41.153 162.588 41.429L160.95 40.853L161.346 34.04H168.339V35.813H162.309L163.074 35.102L162.759 40.205L162.39 39.728C162.732 39.386 163.14 39.125 163.614 38.945C164.088 38.765 164.559 38.675 165.027 38.675C165.831 38.675 166.548 38.861 167.178 39.233C167.814 39.605 168.315 40.112 168.681 40.754C169.047 41.39 169.23 42.113 169.23 42.923C169.23 43.727 169.023 44.459 168.609 45.119C168.195 45.773 167.646 46.295 166.962 46.685C166.278 47.075 165.534 47.27 164.73 47.27ZM170.529 46.991L170.538 45.317L176.181 40.259C176.637 39.857 176.946 39.473 177.108 39.107C177.276 38.741 177.36 38.375 177.36 38.009C177.36 37.547 177.258 37.133 177.054 36.767C176.85 36.395 176.568 36.101 176.208 35.885C175.848 35.669 175.434 35.561 174.966 35.561C174.486 35.561 174.057 35.675 173.679 35.903C173.307 36.125 173.016 36.422 172.806 36.794C172.596 37.166 172.494 37.568 172.5 38H170.574C170.574 37.16 170.763 36.425 171.141 35.795C171.525 35.159 172.05 34.664 172.716 34.31C173.382 33.95 174.144 33.77 175.002 33.77C175.818 33.77 176.55 33.956 177.198 34.328C177.846 34.694 178.356 35.198 178.728 35.84C179.106 36.482 179.295 37.214 179.295 38.036C179.295 38.63 179.217 39.134 179.061 39.548C178.905 39.962 178.671 40.346 178.359 40.7C178.047 41.054 177.657 41.438 177.189 41.852L172.833 45.74L172.626 45.2H179.295V46.991H170.529Z" fill="#1E1B1B"/>
<path opacity="0.7" d="M55.12 18H56.544V13.744H59.912L61.976 18H63.608L61.384 13.432C62.0347 13.16 62.528 12.7307 62.864 12.144C63.2 11.552 63.368 10.8747 63.368 10.112C63.368 9.19467 63.1253 8.408 62.64 7.752C62.16 7.09067 61.4533 6.688 60.52 6.544C60.3707 6.51733 60.2187 6.50133 60.064 6.496C59.9147 6.48533 59.784 6.48 59.672 6.48H55.12V18ZM56.544 12.392V7.832H59.624C59.7253 7.832 59.84 7.83733 59.968 7.848C60.1013 7.85867 60.2267 7.87733 60.344 7.904C60.8987 8.02667 61.2987 8.30667 61.544 8.744C61.7893 9.176 61.912 9.632 61.912 10.112C61.912 10.592 61.7893 11.0507 61.544 11.488C61.2987 11.92 60.8987 12.1973 60.344 12.32C60.2267 12.3467 60.1013 12.3653 59.968 12.376C59.84 12.3867 59.7253 12.392 59.624 12.392H56.544ZM69.05 18.24C69.9087 18.24 70.6473 18.048 71.266 17.664C71.89 17.28 72.37 16.744 72.706 16.056C73.0473 15.368 73.218 14.5733 73.218 13.672C73.218 12.7813 73.05 11.9947 72.714 11.312C72.3833 10.624 71.906 10.088 71.282 9.704C70.658 9.31467 69.914 9.12 69.05 9.12C68.2073 9.12 67.474 9.312 66.85 9.696C66.226 10.0747 65.7433 10.6053 65.402 11.288C65.0607 11.9707 64.89 12.7653 64.89 13.672C64.89 14.5627 65.0553 15.352 65.386 16.04C65.722 16.728 66.202 17.2667 66.826 17.656C67.45 18.0453 68.1913 18.24 69.05 18.24ZM69.05 16.888C68.1807 16.888 67.522 16.5973 67.074 16.016C66.626 15.4293 66.402 14.648 66.402 13.672C66.402 12.728 66.618 11.96 67.05 11.368C67.482 10.7707 68.1487 10.472 69.05 10.472C69.9353 10.472 70.5993 10.7627 71.042 11.344C71.4847 11.9253 71.706 12.7013 71.706 13.672C71.706 14.6213 71.4847 15.3947 71.042 15.992C70.6047 16.5893 69.9407 16.888 69.05 16.888ZM77.4354 18.24C78.8754 18.24 79.942 17.712 80.6354 16.656V18H81.8994V12.656C81.8994 12.3147 81.8834 11.9893 81.8514 11.68C81.8194 11.3653 81.742 11.0747 81.6194 10.808C81.374 10.2427 80.9687 9.82133 80.4034 9.544C79.838 9.26133 79.166 9.12 78.3874 9.12C77.4114 9.12 76.622 9.336 76.0194 9.768C75.422 10.2 75.022 10.7947 74.8194 11.552L76.1714 11.96C76.326 11.432 76.6007 11.048 76.9954 10.808C77.39 10.568 77.8487 10.448 78.3714 10.448C79.118 10.448 79.654 10.616 79.9794 10.952C80.31 11.2827 80.4834 11.792 80.4994 12.48C79.8594 12.5707 79.1874 12.6667 78.4834 12.768C77.7847 12.864 77.1634 12.984 76.6194 13.128C75.9634 13.32 75.446 13.6213 75.0674 14.032C74.6887 14.4373 74.4994 14.9813 74.4994 15.664C74.4994 16.128 74.6087 16.5547 74.8274 16.944C75.0514 17.3333 75.3794 17.648 75.8114 17.888C76.2487 18.1227 76.79 18.24 77.4354 18.24ZM77.6514 17.048C77.038 17.048 76.5954 16.9067 76.3234 16.624C76.0514 16.336 75.9154 16.0133 75.9154 15.656C75.9154 15.2507 76.0487 14.9413 76.3154 14.728C76.5874 14.5093 76.902 14.344 77.2594 14.232C77.6807 14.1147 78.1714 14.016 78.7314 13.936C79.2914 13.856 79.8754 13.776 80.4834 13.696C80.4834 13.8933 80.4727 14.1173 80.4514 14.368C80.4354 14.6187 80.398 14.848 80.3394 15.056C80.238 15.5893 79.9554 16.056 79.4914 16.456C79.0327 16.8507 78.4194 17.048 77.6514 17.048ZM87.3714 18.24C87.958 18.24 88.4754 18.1333 88.9234 17.92C89.3767 17.7013 89.7607 17.4027 90.0754 17.024V18H91.3474V6.48H89.9154V10.144C89.606 9.824 89.238 9.57333 88.8114 9.392C88.3847 9.21067 87.902 9.12 87.3634 9.12C86.5634 9.12 85.8727 9.32 85.2914 9.72C84.7154 10.1147 84.2727 10.656 83.9634 11.344C83.654 12.032 83.4994 12.808 83.4994 13.672C83.4994 14.536 83.654 15.312 83.9634 16C84.2727 16.688 84.7154 17.2347 85.2914 17.64C85.8727 18.04 86.566 18.24 87.3714 18.24ZM87.5474 16.936C86.982 16.936 86.51 16.792 86.1314 16.504C85.758 16.216 85.478 15.8267 85.2914 15.336C85.1047 14.84 85.0114 14.2853 85.0114 13.672C85.0114 13.064 85.102 12.5147 85.2834 12.024C85.47 11.5333 85.7527 11.144 86.1314 10.856C86.5154 10.568 87.0007 10.424 87.5874 10.424C88.43 10.424 89.054 10.728 89.4594 11.336C89.87 11.9387 90.0754 12.7173 90.0754 13.672C90.0754 14.6213 89.8727 15.4027 89.4674 16.016C89.062 16.6293 88.422 16.936 87.5474 16.936ZM95.9919 18H97.4719L98.3759 15.304H103.296L104.208 18H105.688L101.832 6.48H99.8479L95.9919 18ZM98.8239 13.968L100.824 7.976L102.848 13.968H98.8239ZM110.384 18.232C111.461 18.232 112.307 17.9947 112.92 17.52C113.533 17.0453 113.84 16.3893 113.84 15.552C113.84 15.104 113.747 14.728 113.56 14.424C113.373 14.1147 113.059 13.848 112.616 13.624C112.179 13.3947 111.579 13.184 110.816 12.992C110.139 12.8213 109.621 12.6693 109.264 12.536C108.912 12.4027 108.669 12.2613 108.536 12.112C108.408 11.9627 108.344 11.784 108.344 11.576C108.344 11.208 108.517 10.9147 108.864 10.696C109.216 10.4773 109.672 10.376 110.232 10.392C110.819 10.408 111.301 10.552 111.68 10.824C112.059 11.0907 112.283 11.4533 112.352 11.912L113.808 11.648C113.717 10.8853 113.344 10.2747 112.688 9.816C112.037 9.352 111.219 9.12 110.232 9.12C109.235 9.12 108.432 9.352 107.824 9.816C107.216 10.2747 106.912 10.8853 106.912 11.648C106.912 12.0587 107.003 12.408 107.184 12.696C107.371 12.984 107.683 13.2373 108.12 13.456C108.563 13.6747 109.165 13.8853 109.928 14.088C110.632 14.2747 111.157 14.4373 111.504 14.576C111.856 14.7093 112.088 14.8507 112.2 15C112.312 15.1493 112.368 15.3467 112.368 15.592C112.368 16.0133 112.197 16.3467 111.856 16.592C111.52 16.8373 111.059 16.96 110.472 16.96C109.848 16.96 109.325 16.824 108.904 16.552C108.483 16.2747 108.213 15.9013 108.096 15.432L106.64 15.664C106.789 16.4747 107.192 17.1067 107.848 17.56C108.509 18.008 109.355 18.232 110.384 18.232ZM118.868 18.232C119.946 18.232 120.791 17.9947 121.404 17.52C122.018 17.0453 122.324 16.3893 122.324 15.552C122.324 15.104 122.231 14.728 122.044 14.424C121.858 14.1147 121.543 13.848 121.1 13.624C120.663 13.3947 120.063 13.184 119.3 12.992C118.623 12.8213 118.106 12.6693 117.748 12.536C117.396 12.4027 117.154 12.2613 117.02 12.112C116.892 11.9627 116.828 11.784 116.828 11.576C116.828 11.208 117.002 10.9147 117.348 10.696C117.7 10.4773 118.156 10.376 118.716 10.392C119.303 10.408 119.786 10.552 120.164 10.824C120.543 11.0907 120.767 11.4533 120.836 11.912L122.292 11.648C122.202 10.8853 121.828 10.2747 121.172 9.816C120.522 9.352 119.703 9.12 118.716 9.12C117.719 9.12 116.916 9.352 116.308 9.816C115.7 10.2747 115.396 10.8853 115.396 11.648C115.396 12.0587 115.487 12.408 115.668 12.696C115.855 12.984 116.167 13.2373 116.604 13.456C117.047 13.6747 117.65 13.8853 118.412 14.088C119.116 14.2747 119.642 14.4373 119.988 14.576C120.34 14.7093 120.572 14.8507 120.684 15C120.796 15.1493 120.852 15.3467 120.852 15.592C120.852 16.0133 120.682 16.3467 120.34 16.592C120.004 16.8373 119.543 16.96 118.956 16.96C118.332 16.96 117.81 16.824 117.388 16.552C116.967 16.2747 116.698 15.9013 116.58 15.432L115.124 15.664C115.274 16.4747 115.676 17.1067 116.332 17.56C116.994 18.008 117.839 18.232 118.868 18.232ZM124.249 7.832H125.673V6.36H124.249V7.832ZM124.249 18H125.673V9.36H124.249V18ZM131.337 18.232C132.414 18.232 133.26 17.9947 133.873 17.52C134.486 17.0453 134.793 16.3893 134.793 15.552C134.793 15.104 134.7 14.728 134.513 14.424C134.326 14.1147 134.012 13.848 133.569 13.624C133.132 13.3947 132.532 13.184 131.769 12.992C131.092 12.8213 130.574 12.6693 130.217 12.536C129.865 12.4027 129.622 12.2613 129.489 12.112C129.361 11.9627 129.297 11.784 129.297 11.576C129.297 11.208 129.47 10.9147 129.817 10.696C130.169 10.4773 130.625 10.376 131.185 10.392C131.772 10.408 132.254 10.552 132.633 10.824C133.012 11.0907 133.236 11.4533 133.305 11.912L134.761 11.648C134.67 10.8853 134.297 10.2747 133.641 9.816C132.99 9.352 132.172 9.12 131.185 9.12C130.188 9.12 129.385 9.352 128.777 9.816C128.169 10.2747 127.865 10.8853 127.865 11.648C127.865 12.0587 127.956 12.408 128.137 12.696C128.324 12.984 128.636 13.2373 129.073 13.456C129.516 13.6747 130.118 13.8853 130.881 14.088C131.585 14.2747 132.11 14.4373 132.457 14.576C132.809 14.7093 133.041 14.8507 133.153 15C133.265 15.1493 133.321 15.3467 133.321 15.592C133.321 16.0133 133.15 16.3467 132.809 16.592C132.473 16.8373 132.012 16.96 131.425 16.96C130.801 16.96 130.278 16.824 129.857 16.552C129.436 16.2747 129.166 15.9013 129.049 15.432L127.593 15.664C127.742 16.4747 128.145 17.1067 128.801 17.56C129.462 18.008 130.308 18.232 131.337 18.232ZM141.382 18V16.776C140.79 16.8667 140.283 16.8827 139.862 16.824C139.446 16.7653 139.142 16.5653 138.95 16.224C138.848 16.0427 138.792 15.8293 138.782 15.584C138.776 15.3333 138.774 15.0293 138.774 14.672V10.536H141.382V9.36H138.774V6.96H137.35V9.36H135.598V10.536H137.35V14.736C137.35 15.184 137.355 15.584 137.366 15.936C137.382 16.2827 137.475 16.624 137.646 16.96C137.848 17.3493 138.144 17.6373 138.534 17.824C138.923 18.0053 139.366 18.104 139.862 18.12C140.363 18.1413 140.87 18.1013 141.382 18ZM145.592 18.24C147.032 18.24 148.098 17.712 148.792 16.656V18H150.056V12.656C150.056 12.3147 150.04 11.9893 150.008 11.68C149.976 11.3653 149.898 11.0747 149.776 10.808C149.53 10.2427 149.125 9.82133 148.56 9.544C147.994 9.26133 147.322 9.12 146.544 9.12C145.568 9.12 144.778 9.336 144.176 9.768C143.578 10.2 143.178 10.7947 142.976 11.552L144.328 11.96C144.482 11.432 144.757 11.048 145.152 10.808C145.546 10.568 146.005 10.448 146.528 10.448C147.274 10.448 147.81 10.616 148.136 10.952C148.466 11.2827 148.64 11.792 148.656 12.48C148.016 12.5707 147.344 12.6667 146.64 12.768C145.941 12.864 145.32 12.984 144.776 13.128C144.12 13.32 143.602 13.6213 143.224 14.032C142.845 14.4373 142.656 14.9813 142.656 15.664C142.656 16.128 142.765 16.5547 142.984 16.944C143.208 17.3333 143.536 17.648 143.968 17.888C144.405 18.1227 144.946 18.24 145.592 18.24ZM145.808 17.048C145.194 17.048 144.752 16.9067 144.48 16.624C144.208 16.336 144.072 16.0133 144.072 15.656C144.072 15.2507 144.205 14.9413 144.472 14.728C144.744 14.5093 145.058 14.344 145.416 14.232C145.837 14.1147 146.328 14.016 146.888 13.936C147.448 13.856 148.032 13.776 148.64 13.696C148.64 13.8933 148.629 14.1173 148.608 14.368C148.592 14.6187 148.554 14.848 148.496 15.056C148.394 15.5893 148.112 16.056 147.648 16.456C147.189 16.8507 146.576 17.048 145.808 17.048ZM152.128 18H153.568V13.448C153.568 12.4453 153.784 11.7013 154.216 11.216C154.653 10.7307 155.229 10.488 155.944 10.488C156.552 10.488 157.026 10.64 157.368 10.944C157.709 11.248 157.946 11.6427 158.08 12.128C158.218 12.6133 158.288 13.128 158.288 13.672V18H159.728V13.224C159.728 12.8133 159.677 12.3733 159.576 11.904C159.48 11.4293 159.304 10.984 159.048 10.568C158.797 10.1467 158.448 9.80267 158 9.536C157.557 9.26933 156.986 9.136 156.288 9.136C155.029 9.136 154.069 9.58133 153.408 10.472V9.36H152.128V18ZM165.369 18.24C166.26 18.24 167.023 18.0267 167.657 17.6C168.292 17.1733 168.761 16.5573 169.065 15.752L167.625 15.376C167.225 16.384 166.473 16.888 165.369 16.888C164.511 16.888 163.863 16.5947 163.425 16.008C162.993 15.4213 162.772 14.6453 162.761 13.68C162.772 12.7413 162.988 11.9733 163.409 11.376C163.831 10.7733 164.484 10.472 165.369 10.472C165.892 10.472 166.359 10.6107 166.769 10.888C167.18 11.1653 167.476 11.5547 167.657 12.056L169.065 11.632C168.836 10.8533 168.391 10.24 167.729 9.792C167.073 9.344 166.292 9.12 165.385 9.12C164.521 9.12 163.78 9.31467 163.161 9.704C162.548 10.088 162.079 10.6213 161.753 11.304C161.428 11.9867 161.26 12.7787 161.249 13.68C161.26 14.56 161.425 15.344 161.745 16.032C162.065 16.72 162.529 17.2613 163.137 17.656C163.751 18.0453 164.495 18.24 165.369 18.24ZM174.208 18.24C175.045 18.24 175.8 18.032 176.472 17.616C177.144 17.1947 177.65 16.6027 177.992 15.84L176.624 15.368C176.128 16.3813 175.301 16.888 174.144 16.888C173.349 16.888 172.725 16.6453 172.272 16.16C171.824 15.6693 171.57 14.976 171.512 14.08H178.136C178.178 13.056 178.045 12.1733 177.736 11.432C177.432 10.6907 176.973 10.12 176.36 9.72C175.752 9.32 175.013 9.12 174.144 9.12C173.306 9.12 172.576 9.30933 171.952 9.688C171.328 10.0613 170.842 10.5947 170.496 11.288C170.154 11.976 169.984 12.792 169.984 13.736C169.984 14.6373 170.157 15.4267 170.504 16.104C170.856 16.776 171.349 17.3013 171.984 17.68C172.618 18.0533 173.36 18.24 174.208 18.24ZM174.192 10.4C175.658 10.4 176.48 11.2453 176.656 12.936H171.536C171.637 12.1147 171.912 11.488 172.36 11.056C172.808 10.6187 173.418 10.4 174.192 10.4Z" fill="#1E1B1B"/>
<circle cx="20" cy="28" r="20" fill="#61C4A1"/>
<path d="M27.76 31.9203C26.4636 30.8869 25.148 30.261 23.8675 31.2928L23.1029 31.9164C22.5435 32.3691 21.5034 34.4842 17.482 30.1728C13.4615 25.8668 15.854 25.1963 16.4143 24.7475L17.1831 24.1231C18.4568 23.089 17.9761 21.7871 17.0574 20.447L16.5031 19.6353C15.5802 18.2983 14.5753 17.4202 13.2982 18.4528L12.6081 19.0148C12.0437 19.398 10.4659 20.6437 10.0832 23.0101C9.62262 25.8496 11.0756 29.1011 14.4044 32.6688C17.7291 36.238 20.9842 38.0308 24.0677 37.9996C26.6303 37.9738 28.1779 36.6923 28.6619 36.2263L29.3545 35.6636C30.6282 34.6317 29.8368 33.5812 28.5396 32.5455L27.76 31.9203Z" fill="white"/>
</svg>
