<svg width="375" height="56" viewBox="0 0 375 56" fill="none" xmlns="http://www.w3.org/2000/svg">
<path d="M45.26 47V34.04H46.961L51.659 43.787L56.33 34.04H58.049V46.991H56.267V38.126L52.082 47H51.227L47.033 38.126V47H45.26ZM64.7915 47.27C63.8195 47.27 62.9765 47.051 62.2625 46.613C61.5485 46.175 60.9965 45.572 60.6065 44.804C60.2225 44.03 60.0305 43.139 60.0305 42.131C60.0305 41.117 60.2285 40.226 60.6245 39.458C61.0205 38.684 61.5755 38.084 62.2895 37.658C63.0035 37.226 63.8375 37.01 64.7915 37.01C65.7635 37.01 66.6065 37.229 67.3205 37.667C68.0345 38.105 68.5865 38.708 68.9765 39.476C69.3665 40.244 69.5615 41.129 69.5615 42.131C69.5615 43.145 69.3635 44.039 68.9675 44.813C68.5775 45.581 68.0255 46.184 67.3115 46.622C66.5975 47.054 65.7575 47.27 64.7915 47.27ZM64.7915 45.497C65.7215 45.497 66.4145 45.185 66.8705 44.561C67.3325 43.931 67.5635 43.121 67.5635 42.131C67.5635 41.117 67.3295 40.307 66.8615 39.701C66.3995 39.089 65.7095 38.783 64.7915 38.783C64.1615 38.783 63.6425 38.927 63.2345 39.215C62.8265 39.497 62.5235 39.89 62.3255 40.394C62.1275 40.892 62.0285 41.471 62.0285 42.131C62.0285 43.151 62.2625 43.967 62.7305 44.579C63.1985 45.191 63.8855 45.497 64.7915 45.497ZM78.3613 47V42.221C78.3613 41.843 78.3283 41.456 78.2623 41.06C78.2023 40.658 78.0823 40.286 77.9023 39.944C77.7283 39.602 77.4793 39.326 77.1553 39.116C76.8373 38.906 76.4203 38.801 75.9043 38.801C75.5683 38.801 75.2503 38.858 74.9503 38.972C74.6503 39.08 74.3863 39.257 74.1583 39.503C73.9363 39.749 73.7593 40.073 73.6273 40.475C73.5013 40.877 73.4383 41.366 73.4383 41.942L72.2683 41.501C72.2683 40.619 72.4333 39.842 72.7633 39.17C73.0933 38.492 73.5673 37.964 74.1853 37.586C74.8033 37.208 75.5503 37.019 76.4263 37.019C77.0983 37.019 77.6623 37.127 78.1183 37.343C78.5743 37.559 78.9433 37.844 79.2253 38.198C79.5133 38.546 79.7323 38.927 79.8823 39.341C80.0323 39.755 80.1343 40.16 80.1883 40.556C80.2423 40.952 80.2693 41.3 80.2693 41.6V47H78.3613ZM71.5303 47V37.28H73.2133V40.088H73.4383V47H71.5303ZM86.3515 47.27C85.4455 47.27 84.6625 47.045 84.0025 46.595C83.3485 46.145 82.8415 45.533 82.4815 44.759C82.1275 43.979 81.9505 43.103 81.9505 42.131C81.9505 41.153 82.1305 40.28 82.4905 39.512C82.8505 38.738 83.3605 38.129 84.0205 37.685C84.6865 37.235 85.4755 37.01 86.3875 37.01C87.3055 37.01 88.0765 37.235 88.7005 37.685C89.3305 38.129 89.8045 38.738 90.1225 39.512C90.4465 40.286 90.6085 41.159 90.6085 42.131C90.6085 43.103 90.4465 43.976 90.1225 44.75C89.7985 45.524 89.3215 46.139 88.6915 46.595C88.0615 47.045 87.2815 47.27 86.3515 47.27ZM86.6125 45.569C87.2305 45.569 87.7345 45.422 88.1245 45.128C88.5145 44.834 88.7995 44.429 88.9795 43.913C89.1595 43.397 89.2495 42.803 89.2495 42.131C89.2495 41.459 89.1565 40.865 88.9705 40.349C88.7905 39.833 88.5085 39.431 88.1245 39.143C87.7465 38.855 87.2635 38.711 86.6755 38.711C86.0515 38.711 85.5385 38.864 85.1365 39.17C84.7345 39.476 84.4345 39.887 84.2365 40.403C84.0445 40.919 83.9485 41.495 83.9485 42.131C83.9485 42.773 84.0445 43.355 84.2365 43.877C84.4345 44.393 84.7285 44.804 85.1185 45.11C85.5145 45.416 86.0125 45.569 86.6125 45.569ZM89.2495 47V40.007H89.0335V34.04H90.9235V47H89.2495ZM96.1866 47.27C95.4666 47.27 94.8636 47.138 94.3776 46.874C93.8916 46.604 93.5226 46.25 93.2706 45.812C93.0246 45.368 92.9016 44.882 92.9016 44.354C92.9016 43.862 92.9886 43.43 93.1626 43.058C93.3366 42.686 93.5946 42.371 93.9366 42.113C94.2786 41.849 94.6986 41.636 95.1966 41.474C95.6286 41.348 96.1176 41.237 96.6636 41.141C97.2096 41.045 97.7826 40.955 98.3826 40.871C98.9886 40.787 99.5886 40.703 100.183 40.619L99.4986 40.997C99.5106 40.235 99.3486 39.671 99.0126 39.305C98.6826 38.933 98.1126 38.747 97.3026 38.747C96.7926 38.747 96.3246 38.867 95.8986 39.107C95.4726 39.341 95.1756 39.731 95.0076 40.277L93.2526 39.737C93.4926 38.903 93.9486 38.24 94.6206 37.748C95.2986 37.256 96.1986 37.01 97.3206 37.01C98.1906 37.01 98.9466 37.16 99.5886 37.46C100.237 37.754 100.711 38.222 101.011 38.864C101.167 39.182 101.263 39.518 101.299 39.872C101.335 40.226 101.353 40.607 101.353 41.015V47H99.6876V44.777L100.012 45.065C99.6096 45.809 99.0966 46.364 98.4726 46.73C97.8546 47.09 97.0926 47.27 96.1866 47.27ZM96.5196 45.731C97.0536 45.731 97.5126 45.638 97.8966 45.452C98.2806 45.26 98.5896 45.017 98.8236 44.723C99.0576 44.429 99.2106 44.123 99.2826 43.805C99.3846 43.517 99.4416 43.193 99.4536 42.833C99.4716 42.473 99.4806 42.185 99.4806 41.969L100.093 42.194C99.4986 42.284 98.9586 42.365 98.4726 42.437C97.9866 42.509 97.5456 42.581 97.1496 42.653C96.7596 42.719 96.4116 42.8 96.1056 42.896C95.8476 42.986 95.6166 43.094 95.4126 43.22C95.2146 43.346 95.0556 43.499 94.9356 43.679C94.8216 43.859 94.7646 44.078 94.7646 44.336C94.7646 44.588 94.8276 44.822 94.9536 45.038C95.0796 45.248 95.2716 45.416 95.5296 45.542C95.7876 45.668 96.1176 45.731 96.5196 45.731ZM104.459 51.32L106.34 46.199L106.367 47.711L102.128 37.28H104.09L107.258 45.335H106.682L109.706 37.28H111.614L106.25 51.32H104.459ZM122.189 47C121.577 47.12 120.977 47.171 120.389 47.153C119.801 47.135 119.276 47.021 118.814 46.811C118.352 46.601 118.004 46.271 117.77 45.821C117.56 45.419 117.446 45.011 117.428 44.597C117.416 44.177 117.41 43.703 117.41 43.175V34.58H119.3V43.085C119.3 43.475 119.303 43.814 119.309 44.102C119.321 44.39 119.384 44.633 119.498 44.831C119.714 45.203 120.056 45.416 120.524 45.47C120.998 45.518 121.553 45.497 122.189 45.407V47ZM115.547 38.792V37.28H122.189V38.792H115.547ZM128.02 47.27C127.048 47.27 126.205 47.051 125.491 46.613C124.777 46.175 124.225 45.572 123.835 44.804C123.451 44.03 123.259 43.139 123.259 42.131C123.259 41.117 123.457 40.226 123.853 39.458C124.249 38.684 124.804 38.084 125.518 37.658C126.232 37.226 127.066 37.01 128.02 37.01C128.992 37.01 129.835 37.229 130.549 37.667C131.263 38.105 131.815 38.708 132.205 39.476C132.595 40.244 132.79 41.129 132.79 42.131C132.79 43.145 132.592 44.039 132.196 44.813C131.806 45.581 131.254 46.184 130.54 46.622C129.826 47.054 128.986 47.27 128.02 47.27ZM128.02 45.497C128.95 45.497 129.643 45.185 130.099 44.561C130.561 43.931 130.792 43.121 130.792 42.131C130.792 41.117 130.558 40.307 130.09 39.701C129.628 39.089 128.938 38.783 128.02 38.783C127.39 38.783 126.871 38.927 126.463 39.215C126.055 39.497 125.752 39.89 125.554 40.394C125.356 40.892 125.257 41.471 125.257 42.131C125.257 43.151 125.491 43.967 125.959 44.579C126.427 45.191 127.114 45.497 128.02 45.497ZM138.371 47V34.04H146.048V35.921H140.252V39.575H144.968V41.465H140.252V47H138.371ZM147.67 47V37.28H149.344V39.638L149.11 39.332C149.23 39.02 149.386 38.735 149.578 38.477C149.77 38.213 149.992 37.997 150.244 37.829C150.49 37.649 150.763 37.511 151.063 37.415C151.369 37.313 151.681 37.253 151.999 37.235C152.317 37.211 152.623 37.226 152.917 37.28V39.044C152.599 38.96 152.245 38.936 151.855 38.972C151.471 39.008 151.117 39.131 150.793 39.341C150.487 39.539 150.244 39.779 150.064 40.061C149.89 40.343 149.764 40.658 149.686 41.006C149.608 41.348 149.569 41.711 149.569 42.095V47H147.67ZM154.811 35.687V33.86H156.692V35.687H154.811ZM154.811 47V37.28H156.692V47H154.811ZM163.256 47.27C162.35 47.27 161.567 47.045 160.907 46.595C160.253 46.145 159.746 45.533 159.386 44.759C159.032 43.979 158.855 43.103 158.855 42.131C158.855 41.153 159.035 40.28 159.395 39.512C159.755 38.738 160.265 38.129 160.925 37.685C161.591 37.235 162.38 37.01 163.292 37.01C164.21 37.01 164.981 37.235 165.605 37.685C166.235 38.129 166.709 38.738 167.027 39.512C167.351 40.286 167.513 41.159 167.513 42.131C167.513 43.103 167.351 43.976 167.027 44.75C166.703 45.524 166.226 46.139 165.596 46.595C164.966 47.045 164.186 47.27 163.256 47.27ZM163.517 45.569C164.135 45.569 164.639 45.422 165.029 45.128C165.419 44.834 165.704 44.429 165.884 43.913C166.064 43.397 166.154 42.803 166.154 42.131C166.154 41.459 166.061 40.865 165.875 40.349C165.695 39.833 165.413 39.431 165.029 39.143C164.651 38.855 164.168 38.711 163.58 38.711C162.956 38.711 162.443 38.864 162.041 39.17C161.639 39.476 161.339 39.887 161.141 40.403C160.949 40.919 160.853 41.495 160.853 42.131C160.853 42.773 160.949 43.355 161.141 43.877C161.339 44.393 161.633 44.804 162.023 45.11C162.419 45.416 162.917 45.569 163.517 45.569ZM166.154 47V40.007H165.938V34.04H167.828V47H166.154ZM173.091 47.27C172.371 47.27 171.768 47.138 171.282 46.874C170.796 46.604 170.427 46.25 170.175 45.812C169.929 45.368 169.806 44.882 169.806 44.354C169.806 43.862 169.893 43.43 170.067 43.058C170.241 42.686 170.499 42.371 170.841 42.113C171.183 41.849 171.603 41.636 172.101 41.474C172.533 41.348 173.022 41.237 173.568 41.141C174.114 41.045 174.687 40.955 175.287 40.871C175.893 40.787 176.493 40.703 177.087 40.619L176.403 40.997C176.415 40.235 176.253 39.671 175.917 39.305C175.587 38.933 175.017 38.747 174.207 38.747C173.697 38.747 173.229 38.867 172.803 39.107C172.377 39.341 172.08 39.731 171.912 40.277L170.157 39.737C170.397 38.903 170.853 38.24 171.525 37.748C172.203 37.256 173.103 37.01 174.225 37.01C175.095 37.01 175.851 37.16 176.493 37.46C177.141 37.754 177.615 38.222 177.915 38.864C178.071 39.182 178.167 39.518 178.203 39.872C178.239 40.226 178.257 40.607 178.257 41.015V47H176.592V44.777L176.916 45.065C176.514 45.809 176.001 46.364 175.377 46.73C174.759 47.09 173.997 47.27 173.091 47.27ZM173.424 45.731C173.958 45.731 174.417 45.638 174.801 45.452C175.185 45.26 175.494 45.017 175.728 44.723C175.962 44.429 176.115 44.123 176.187 43.805C176.289 43.517 176.346 43.193 176.358 42.833C176.376 42.473 176.385 42.185 176.385 41.969L176.997 42.194C176.403 42.284 175.863 42.365 175.377 42.437C174.891 42.509 174.45 42.581 174.054 42.653C173.664 42.719 173.316 42.8 173.01 42.896C172.752 42.986 172.521 43.094 172.317 43.22C172.119 43.346 171.96 43.499 171.84 43.679C171.726 43.859 171.669 44.078 171.669 44.336C171.669 44.588 171.732 44.822 171.858 45.038C171.984 45.248 172.176 45.416 172.434 45.542C172.692 45.668 173.022 45.731 173.424 45.731ZM181.363 51.32L183.244 46.199L183.271 47.711L179.032 37.28H180.994L184.162 45.335H183.586L186.61 37.28H188.518L183.154 51.32H181.363ZM197.743 33.779C198.577 33.779 199.33 33.98 200.002 34.382C200.674 34.778 201.208 35.324 201.604 36.02C202 36.716 202.198 37.511 202.198 38.405V42.527C202.198 43.475 202 44.306 201.604 45.02C201.214 45.728 200.668 46.28 199.966 46.676C199.27 47.072 198.466 47.27 197.554 47.27C196.87 47.27 196.228 47.141 195.628 46.883C195.028 46.625 194.506 46.241 194.062 45.731L195.448 44.444C195.694 44.762 196.003 45.017 196.375 45.209C196.747 45.401 197.14 45.497 197.554 45.497C198.088 45.497 198.559 45.368 198.967 45.11C199.381 44.852 199.702 44.516 199.93 44.102C200.158 43.688 200.272 43.244 200.272 42.77V40.394L200.65 40.808C200.278 41.294 199.816 41.678 199.264 41.96C198.712 42.242 198.121 42.383 197.491 42.383C196.681 42.383 195.961 42.197 195.331 41.825C194.701 41.453 194.203 40.946 193.837 40.304C193.471 39.662 193.288 38.936 193.288 38.126C193.288 37.316 193.492 36.584 193.9 35.93C194.308 35.276 194.848 34.754 195.52 34.364C196.192 33.974 196.933 33.779 197.743 33.779ZM197.743 35.597C197.275 35.597 196.846 35.711 196.456 35.939C196.072 36.161 195.766 36.464 195.538 36.848C195.31 37.232 195.196 37.658 195.196 38.126C195.196 38.594 195.31 39.023 195.538 39.413C195.766 39.797 196.072 40.103 196.456 40.331C196.84 40.559 197.266 40.673 197.734 40.673C198.202 40.673 198.628 40.559 199.012 40.331C199.396 40.103 199.702 39.797 199.93 39.413C200.158 39.023 200.272 38.594 200.272 38.126C200.272 37.664 200.158 37.241 199.93 36.857C199.708 36.473 199.405 36.167 199.021 35.939C198.637 35.711 198.211 35.597 197.743 35.597ZM205.431 45.74V43.751H207.42V45.74H205.431ZM205.44 40.529V38.54H207.429V40.529H205.44ZM215.135 47.27C214.253 47.27 213.473 47.078 212.795 46.694C212.117 46.304 211.583 45.77 211.193 45.092C210.809 44.414 210.617 43.634 210.617 42.752V38.288C210.617 37.406 210.809 36.626 211.193 35.948C211.583 35.27 212.117 34.739 212.795 34.355C213.473 33.965 214.253 33.77 215.135 33.77C216.017 33.77 216.797 33.965 217.475 34.355C218.153 34.739 218.684 35.27 219.068 35.948C219.458 36.626 219.653 37.406 219.653 38.288V42.752C219.653 43.634 219.458 44.414 219.068 45.092C218.684 45.77 218.153 46.304 217.475 46.694C216.797 47.078 216.017 47.27 215.135 47.27ZM215.135 45.47C215.615 45.47 216.05 45.356 216.44 45.128C216.836 44.894 217.151 44.582 217.385 44.192C217.619 43.796 217.736 43.355 217.736 42.869V38.153C217.736 37.673 217.619 37.238 217.385 36.848C217.151 36.452 216.836 36.14 216.44 35.912C216.05 35.678 215.615 35.561 215.135 35.561C214.655 35.561 214.217 35.678 213.821 35.912C213.431 36.14 213.119 36.452 212.885 36.848C212.651 37.238 212.534 37.673 212.534 38.153V42.869C212.534 43.355 212.651 43.796 212.885 44.192C213.119 44.582 213.431 44.894 213.821 45.128C214.217 45.356 214.655 45.47 215.135 45.47ZM226.684 47.27C225.802 47.27 225.022 47.078 224.344 46.694C223.666 46.304 223.132 45.77 222.742 45.092C222.358 44.414 222.166 43.634 222.166 42.752V38.288C222.166 37.406 222.358 36.626 222.742 35.948C223.132 35.27 223.666 34.739 224.344 34.355C225.022 33.965 225.802 33.77 226.684 33.77C227.566 33.77 228.346 33.965 229.024 34.355C229.702 34.739 230.233 35.27 230.617 35.948C231.007 36.626 231.202 37.406 231.202 38.288V42.752C231.202 43.634 231.007 44.414 230.617 45.092C230.233 45.77 229.702 46.304 229.024 46.694C228.346 47.078 227.566 47.27 226.684 47.27ZM226.684 45.47C227.164 45.47 227.599 45.356 227.989 45.128C228.385 44.894 228.7 44.582 228.934 44.192C229.168 43.796 229.285 43.355 229.285 42.869V38.153C229.285 37.673 229.168 37.238 228.934 36.848C228.7 36.452 228.385 36.14 227.989 35.912C227.599 35.678 227.164 35.561 226.684 35.561C226.204 35.561 225.766 35.678 225.37 35.912C224.98 36.14 224.668 36.452 224.434 36.848C224.2 37.238 224.083 37.673 224.083 38.153V42.869C224.083 43.355 224.2 43.796 224.434 44.192C224.668 44.582 224.98 44.894 225.37 45.128C225.766 45.356 226.204 45.47 226.684 45.47ZM236.419 47L240.631 34.04H243.34L247.552 47H245.599L241.72 35.174H242.206L238.372 47H236.419ZM238.606 44.075V42.311H245.374V44.075H238.606ZM249.166 47V34.04H250.867L255.565 43.787L260.236 34.04H261.955V46.991H260.173V38.126L255.988 47H255.133L250.939 38.126V47H249.166ZM273.642 47C273.03 47.12 272.43 47.171 271.842 47.153C271.254 47.135 270.729 47.021 270.267 46.811C269.805 46.601 269.457 46.271 269.223 45.821C269.013 45.419 268.899 45.011 268.881 44.597C268.869 44.177 268.863 43.703 268.863 43.175V34.58H270.753V43.085C270.753 43.475 270.756 43.814 270.762 44.102C270.774 44.39 270.837 44.633 270.951 44.831C271.167 45.203 271.509 45.416 271.977 45.47C272.451 45.518 273.006 45.497 273.642 45.407V47ZM267 38.792V37.28H273.642V38.792H267ZM279.473 47.27C278.501 47.27 277.658 47.051 276.944 46.613C276.23 46.175 275.678 45.572 275.288 44.804C274.904 44.03 274.712 43.139 274.712 42.131C274.712 41.117 274.91 40.226 275.306 39.458C275.702 38.684 276.257 38.084 276.971 37.658C277.685 37.226 278.519 37.01 279.473 37.01C280.445 37.01 281.288 37.229 282.002 37.667C282.716 38.105 283.268 38.708 283.658 39.476C284.048 40.244 284.243 41.129 284.243 42.131C284.243 43.145 284.045 44.039 283.649 44.813C283.259 45.581 282.707 46.184 281.993 46.622C281.279 47.054 280.439 47.27 279.473 47.27ZM279.473 45.497C280.403 45.497 281.096 45.185 281.552 44.561C282.014 43.931 282.245 43.121 282.245 42.131C282.245 41.117 282.011 40.307 281.543 39.701C281.081 39.089 280.391 38.783 279.473 38.783C278.843 38.783 278.324 38.927 277.916 39.215C277.508 39.497 277.205 39.89 277.007 40.394C276.809 40.892 276.71 41.471 276.71 42.131C276.71 43.151 276.944 43.967 277.412 44.579C277.88 45.191 278.567 45.497 279.473 45.497ZM295.687 47V36.11L293.248 37.595V35.498L295.687 34.04H297.604V47H295.687ZM305.54 47.27C304.658 47.27 303.878 47.078 303.2 46.694C302.522 46.304 301.988 45.77 301.598 45.092C301.214 44.414 301.022 43.634 301.022 42.752V38.288C301.022 37.406 301.214 36.626 301.598 35.948C301.988 35.27 302.522 34.739 303.2 34.355C303.878 33.965 304.658 33.77 305.54 33.77C306.422 33.77 307.202 33.965 307.88 34.355C308.558 34.739 309.089 35.27 309.473 35.948C309.863 36.626 310.058 37.406 310.058 38.288V42.752C310.058 43.634 309.863 44.414 309.473 45.092C309.089 45.77 308.558 46.304 307.88 46.694C307.202 47.078 306.422 47.27 305.54 47.27ZM305.54 45.47C306.02 45.47 306.455 45.356 306.845 45.128C307.241 44.894 307.556 44.582 307.79 44.192C308.024 43.796 308.141 43.355 308.141 42.869V38.153C308.141 37.673 308.024 37.238 307.79 36.848C307.556 36.452 307.241 36.14 306.845 35.912C306.455 35.678 306.02 35.561 305.54 35.561C305.06 35.561 304.622 35.678 304.226 35.912C303.836 36.14 303.524 36.452 303.29 36.848C303.056 37.238 302.939 37.673 302.939 38.153V42.869C302.939 43.355 303.056 43.796 303.29 44.192C303.524 44.582 303.836 44.894 304.226 45.128C304.622 45.356 305.06 45.47 305.54 45.47ZM313.291 45.74V43.751H315.28V45.74H313.291ZM313.3 40.529V38.54H315.289V40.529H313.3ZM322.995 47.27C322.113 47.27 321.333 47.078 320.655 46.694C319.977 46.304 319.443 45.77 319.053 45.092C318.669 44.414 318.477 43.634 318.477 42.752V38.288C318.477 37.406 318.669 36.626 319.053 35.948C319.443 35.27 319.977 34.739 320.655 34.355C321.333 33.965 322.113 33.77 322.995 33.77C323.877 33.77 324.657 33.965 325.335 34.355C326.013 34.739 326.544 35.27 326.928 35.948C327.318 36.626 327.513 37.406 327.513 38.288V42.752C327.513 43.634 327.318 44.414 326.928 45.092C326.544 45.77 326.013 46.304 325.335 46.694C324.657 47.078 323.877 47.27 322.995 47.27ZM322.995 45.47C323.475 45.47 323.91 45.356 324.3 45.128C324.696 44.894 325.011 44.582 325.245 44.192C325.479 43.796 325.596 43.355 325.596 42.869V38.153C325.596 37.673 325.479 37.238 325.245 36.848C325.011 36.452 324.696 36.14 324.3 35.912C323.91 35.678 323.475 35.561 322.995 35.561C322.515 35.561 322.077 35.678 321.681 35.912C321.291 36.14 320.979 36.452 320.745 36.848C320.511 37.238 320.394 37.673 320.394 38.153V42.869C320.394 43.355 320.511 43.796 320.745 44.192C320.979 44.582 321.291 44.894 321.681 45.128C322.077 45.356 322.515 45.47 322.995 45.47ZM334.544 47.27C333.662 47.27 332.882 47.078 332.204 46.694C331.526 46.304 330.992 45.77 330.602 45.092C330.218 44.414 330.026 43.634 330.026 42.752V38.288C330.026 37.406 330.218 36.626 330.602 35.948C330.992 35.27 331.526 34.739 332.204 34.355C332.882 33.965 333.662 33.77 334.544 33.77C335.426 33.77 336.206 33.965 336.884 34.355C337.562 34.739 338.093 35.27 338.477 35.948C338.867 36.626 339.062 37.406 339.062 38.288V42.752C339.062 43.634 338.867 44.414 338.477 45.092C338.093 45.77 337.562 46.304 336.884 46.694C336.206 47.078 335.426 47.27 334.544 47.27ZM334.544 45.47C335.024 45.47 335.459 45.356 335.849 45.128C336.245 44.894 336.56 44.582 336.794 44.192C337.028 43.796 337.145 43.355 337.145 42.869V38.153C337.145 37.673 337.028 37.238 336.794 36.848C336.56 36.452 336.245 36.14 335.849 35.912C335.459 35.678 335.024 35.561 334.544 35.561C334.064 35.561 333.626 35.678 333.23 35.912C332.84 36.14 332.528 36.452 332.294 36.848C332.06 37.238 331.943 37.673 331.943 38.153V42.869C331.943 43.355 332.06 43.796 332.294 44.192C332.528 44.582 332.84 44.894 333.23 45.128C333.626 45.356 334.064 45.47 334.544 45.47ZM347.881 47L352.093 34.04H354.802L359.014 47H357.061L353.182 35.174H353.668L349.834 47H347.881ZM350.068 44.075V42.311H356.836V44.075H350.068ZM360.629 47V34.04H362.33L367.028 43.787L371.699 34.04H373.418V46.991H371.636V38.126L367.451 47H366.596L362.402 38.126V47H360.629Z" fill="#1E1B1B"/>
<path d="M47.576 18L44.24 6.48H45.728L48.288 15.592L50.84 6.488L52.336 6.48L54.896 15.592L57.448 6.48H58.944L55.608 18H54.184L51.592 8.968L49 18H47.576ZM63.0984 18.24C62.2504 18.24 61.509 18.0533 60.8744 17.68C60.245 17.3013 59.7544 16.776 59.4024 16.104C59.0504 15.4267 58.8744 14.6373 58.8744 13.736C58.8744 12.792 59.0477 11.976 59.3944 11.288C59.741 10.5947 60.2237 10.0613 60.8424 9.688C61.4664 9.30933 62.197 9.12 63.0344 9.12C63.9037 9.12 64.6424 9.32 65.2504 9.72C65.8637 10.12 66.3224 10.6907 66.6264 11.432C66.9357 12.1733 67.069 13.056 67.0264 14.08H65.5864V13.568C65.5704 12.5067 65.3544 11.7147 64.9384 11.192C64.5224 10.664 63.9037 10.4 63.0824 10.4C62.2024 10.4 61.533 10.6827 61.0744 11.248C60.6157 11.8133 60.3864 12.624 60.3864 13.68C60.3864 14.6987 60.6157 15.488 61.0744 16.048C61.533 16.608 62.1864 16.888 63.0344 16.888C63.605 16.888 64.101 16.7573 64.5224 16.496C64.9437 16.2347 65.2744 15.8587 65.5144 15.368L66.8824 15.84C66.5464 16.6027 66.0397 17.1947 65.3624 17.616C64.6904 18.032 63.9357 18.24 63.0984 18.24ZM59.9064 14.08V12.936H66.2904V14.08H59.9064ZM74.4666 18.24C73.8213 18.24 73.28 18.1227 72.8426 17.888C72.4106 17.648 72.0826 17.3333 71.8586 16.944C71.64 16.5547 71.5306 16.128 71.5306 15.664C71.5306 15.2107 71.616 14.8187 71.7866 14.488C71.9626 14.152 72.208 13.8747 72.5226 13.656C72.8373 13.432 73.2133 13.256 73.6506 13.128C74.0613 13.016 74.52 12.92 75.0266 12.84C75.5386 12.7547 76.056 12.6773 76.5786 12.608C77.1013 12.5387 77.5893 12.472 78.0426 12.408L77.5306 12.704C77.5466 11.936 77.392 11.368 77.0666 11C76.7466 10.632 76.192 10.448 75.4026 10.448C74.88 10.448 74.4213 10.568 74.0266 10.808C73.6373 11.0427 73.3626 11.4267 73.2026 11.96L71.8506 11.552C72.0586 10.7947 72.4613 10.2 73.0586 9.768C73.656 9.336 74.4426 9.12 75.4186 9.12C76.2026 9.12 76.8746 9.26133 77.4346 9.544C78 9.82133 78.4053 10.2427 78.6506 10.808C78.7733 11.0747 78.8506 11.3653 78.8826 11.68C78.9146 11.9893 78.9306 12.3147 78.9306 12.656V18H77.6666V15.928L77.9626 16.12C77.6373 16.8187 77.1813 17.3467 76.5946 17.704C76.0133 18.0613 75.304 18.24 74.4666 18.24ZM74.6826 17.048C75.1946 17.048 75.6373 16.9573 76.0106 16.776C76.3893 16.5893 76.6933 16.3467 76.9226 16.048C77.152 15.744 77.3013 15.4133 77.3706 15.056C77.4506 14.7893 77.4933 14.4933 77.4986 14.168C77.5093 13.8373 77.5146 13.584 77.5146 13.408L78.0106 13.624C77.5466 13.688 77.0906 13.7493 76.6426 13.808C76.1946 13.8667 75.7706 13.9307 75.3706 14C74.9706 14.064 74.6106 14.1413 74.2906 14.232C74.056 14.3067 73.8346 14.4027 73.6266 14.52C73.424 14.6373 73.2586 14.7893 73.1306 14.976C73.008 15.1573 72.9466 15.384 72.9466 15.656C72.9466 15.8907 73.0053 16.1147 73.1226 16.328C73.2453 16.5413 73.432 16.7147 73.6826 16.848C73.9386 16.9813 74.272 17.048 74.6826 17.048ZM81.0106 18V9.36H82.2826V11.448L82.0746 11.176C82.176 10.9093 82.3066 10.664 82.4666 10.44C82.632 10.216 82.816 10.032 83.0186 9.888C83.2426 9.70667 83.496 9.568 83.7786 9.472C84.0613 9.376 84.3493 9.32 84.6426 9.304C84.936 9.28267 85.2106 9.30133 85.4666 9.36V10.696C85.168 10.616 84.84 10.5947 84.4826 10.632C84.1253 10.6693 83.7946 10.8 83.4906 11.024C83.2133 11.2213 82.9973 11.4613 82.8426 11.744C82.6933 12.0267 82.5893 12.3333 82.5306 12.664C82.472 12.9893 82.4426 13.3227 82.4426 13.664V18H81.0106ZM90.5671 18.24C89.7191 18.24 88.9778 18.0533 88.3431 17.68C87.7138 17.3013 87.2231 16.776 86.8711 16.104C86.5191 15.4267 86.3431 14.6373 86.3431 13.736C86.3431 12.792 86.5165 11.976 86.8631 11.288C87.2098 10.5947 87.6925 10.0613 88.3111 9.688C88.9351 9.30933 89.6658 9.12 90.5031 9.12C91.3725 9.12 92.1111 9.32 92.7191 9.72C93.3325 10.12 93.7911 10.6907 94.0951 11.432C94.4045 12.1733 94.5378 13.056 94.4951 14.08H93.0551V13.568C93.0391 12.5067 92.8231 11.7147 92.4071 11.192C91.9911 10.664 91.3725 10.4 90.5511 10.4C89.6711 10.4 89.0018 10.6827 88.5431 11.248C88.0845 11.8133 87.8551 12.624 87.8551 13.68C87.8551 14.6987 88.0845 15.488 88.5431 16.048C89.0018 16.608 89.6551 16.888 90.5031 16.888C91.0738 16.888 91.5698 16.7573 91.9911 16.496C92.4125 16.2347 92.7431 15.8587 92.9831 15.368L94.3511 15.84C94.0151 16.6027 93.5085 17.1947 92.8311 17.616C92.1591 18.032 91.4045 18.24 90.5671 18.24ZM87.3751 14.08V12.936H93.7591V14.08H87.3751ZM103.159 18.24C102.301 18.24 101.559 18.0453 100.935 17.656C100.317 17.2667 99.8394 16.728 99.5034 16.04C99.1674 15.352 98.9994 14.5627 98.9994 13.672C98.9994 12.7653 99.17 11.9707 99.5114 11.288C99.8527 10.6053 100.335 10.0747 100.959 9.696C101.583 9.312 102.317 9.12 103.159 9.12C104.023 9.12 104.767 9.31467 105.391 9.704C106.015 10.088 106.493 10.624 106.823 11.312C107.159 11.9947 107.327 12.7813 107.327 13.672C107.327 14.5733 107.159 15.368 106.823 16.056C106.487 16.7387 106.007 17.2747 105.383 17.664C104.759 18.048 104.018 18.24 103.159 18.24ZM103.159 16.888C104.055 16.888 104.722 16.5893 105.159 15.992C105.597 15.3947 105.815 14.6213 105.815 13.672C105.815 12.696 105.594 11.92 105.151 11.344C104.709 10.7627 104.045 10.472 103.159 10.472C102.557 10.472 102.061 10.608 101.671 10.88C101.282 11.152 100.991 11.528 100.799 12.008C100.607 12.488 100.511 13.0427 100.511 13.672C100.511 14.6427 100.735 15.4213 101.183 16.008C101.631 16.5947 102.29 16.888 103.159 16.888ZM113.057 18.24C112.246 18.24 111.563 18.04 111.009 17.64C110.454 17.2347 110.033 16.688 109.745 16C109.462 15.3067 109.321 14.5307 109.321 13.672C109.321 12.8027 109.462 12.024 109.745 11.336C110.033 10.648 110.454 10.1067 111.009 9.712C111.569 9.31733 112.254 9.12 113.065 9.12C113.865 9.12 114.553 9.32 115.129 9.72C115.71 10.1147 116.155 10.656 116.465 11.344C116.774 12.032 116.929 12.808 116.929 13.672C116.929 14.536 116.774 15.312 116.465 16C116.155 16.688 115.71 17.2347 115.129 17.64C114.553 18.04 113.862 18.24 113.057 18.24ZM109.081 21.84V9.36H110.353V15.72H110.513V21.84H109.081ZM112.881 16.936C113.451 16.936 113.923 16.792 114.297 16.504C114.67 16.216 114.95 15.8267 115.137 15.336C115.323 14.84 115.417 14.2853 115.417 13.672C115.417 13.064 115.323 12.5147 115.137 12.024C114.955 11.5333 114.673 11.144 114.289 10.856C113.91 10.568 113.427 10.424 112.841 10.424C112.281 10.424 111.817 10.5627 111.449 10.84C111.081 11.112 110.806 11.4933 110.625 11.984C110.443 12.4693 110.353 13.032 110.353 13.672C110.353 14.3013 110.441 14.864 110.617 15.36C110.798 15.8507 111.075 16.2373 111.449 16.52C111.822 16.7973 112.299 16.936 112.881 16.936ZM122.427 18.24C121.579 18.24 120.837 18.0533 120.203 17.68C119.573 17.3013 119.083 16.776 118.731 16.104C118.379 15.4267 118.203 14.6373 118.203 13.736C118.203 12.792 118.376 11.976 118.723 11.288C119.069 10.5947 119.552 10.0613 120.171 9.688C120.795 9.30933 121.525 9.12 122.363 9.12C123.232 9.12 123.971 9.32 124.579 9.72C125.192 10.12 125.651 10.6907 125.955 11.432C126.264 12.1733 126.397 13.056 126.355 14.08H124.915V13.568C124.899 12.5067 124.683 11.7147 124.267 11.192C123.851 10.664 123.232 10.4 122.411 10.4C121.531 10.4 120.861 10.6827 120.403 11.248C119.944 11.8133 119.715 12.624 119.715 13.68C119.715 14.6987 119.944 15.488 120.403 16.048C120.861 16.608 121.515 16.888 122.363 16.888C122.933 16.888 123.429 16.7573 123.851 16.496C124.272 16.2347 124.603 15.8587 124.843 15.368L126.211 15.84C125.875 16.6027 125.368 17.1947 124.691 17.616C124.019 18.032 123.264 18.24 122.427 18.24ZM119.235 14.08V12.936H125.619V14.08H119.235ZM134.053 18V13.672C134.053 13.2613 134.016 12.8667 133.941 12.488C133.872 12.1093 133.747 11.7707 133.565 11.472C133.389 11.168 133.149 10.928 132.845 10.752C132.547 10.576 132.168 10.488 131.709 10.488C131.352 10.488 131.027 10.5493 130.733 10.672C130.445 10.7893 130.197 10.9707 129.989 11.216C129.781 11.4613 129.619 11.7707 129.501 12.144C129.389 12.512 129.333 12.9467 129.333 13.448L128.397 13.16C128.397 12.3227 128.547 11.6053 128.845 11.008C129.149 10.4053 129.573 9.944 130.117 9.624C130.667 9.29867 131.312 9.136 132.053 9.136C132.613 9.136 133.091 9.224 133.485 9.4C133.88 9.576 134.208 9.81067 134.469 10.104C134.731 10.392 134.936 10.7173 135.085 11.08C135.235 11.4373 135.339 11.8027 135.397 12.176C135.461 12.544 135.493 12.8933 135.493 13.224V18H134.053ZM127.893 18V9.36H129.173V11.672H129.333V18H127.893Z" fill="#939191"/>
<path d="M26.4224 16.5459C23.5009 13.6241 19.6161 12.0151 15.4844 12.0151C11.3526 12.0151 7.46789 13.6241 4.54635 16.5459C1.62462 19.4674 0.015625 23.3522 0.015625 27.4839C0.015625 31.6156 1.62462 35.5004 4.54635 38.4219C7.46789 41.3436 11.3526 42.9526 15.4844 42.9526C19.6161 42.9526 23.5009 41.3436 26.4224 38.4219C29.3441 35.5004 30.9531 31.6156 30.9531 27.4839C30.9531 23.3522 29.3441 19.4674 26.4224 16.5459ZM15.4844 40.5356C8.28778 40.5356 2.43262 34.6805 2.43262 27.4839C2.43262 20.2873 8.28778 14.4321 15.4844 14.4321C22.681 14.4321 28.5361 20.2873 28.5361 27.4839C28.5361 34.6805 22.681 40.5356 15.4844 40.5356ZM17.8009 28.1741L22.1979 32.5486L20.4932 34.2624L16.0435 29.835C15.8639 29.8778 15.677 29.9009 15.4844 29.9009C14.1496 29.9009 13.0674 28.8187 13.0674 27.4839C13.0674 26.6145 13.5266 25.8526 14.2155 25.4268V16.9095H15.424H16.6324V25.3566C17.3879 25.7654 17.9014 26.5645 17.9014 27.4839C17.9014 27.7237 17.8659 27.9552 17.8009 28.1741Z" fill="#E2E6E9"/>
</svg>
