<svg width="56" height="54" viewBox="0 0 56 54" fill="none" xmlns="http://www.w3.org/2000/svg">
<path opacity="0.7" d="M2.12 48V36.48H6.672C6.784 36.48 6.91733 36.4853 7.072 36.496C7.22667 36.5013 7.376 36.5173 7.52 36.544C8.144 36.64 8.66667 36.8533 9.088 37.184C9.51467 37.5147 9.83467 37.9333 10.048 38.44C10.2613 38.9413 10.368 39.4987 10.368 40.112C10.368 41.0027 10.136 41.776 9.672 42.432C9.208 43.0827 8.528 43.4907 7.632 43.656L7.088 43.744H3.544V48H2.12ZM8.976 48L6.704 43.312L8.112 42.88L10.608 48H8.976ZM3.544 42.392H6.624C6.72533 42.392 6.84 42.3867 6.968 42.376C7.10133 42.3653 7.22667 42.3467 7.344 42.32C7.712 42.2347 8.01067 42.08 8.24 41.856C8.47467 41.6267 8.64533 41.36 8.752 41.056C8.85867 40.7467 8.912 40.432 8.912 40.112C8.912 39.792 8.85867 39.48 8.752 39.176C8.64533 38.8667 8.47467 38.5973 8.24 38.368C8.01067 38.1387 7.712 37.984 7.344 37.904C7.22667 37.872 7.10133 37.8533 6.968 37.848C6.84 37.8373 6.72533 37.832 6.624 37.832H3.544V42.392ZM14.826 48.24C14.1807 48.24 13.6393 48.1227 13.202 47.888C12.77 47.648 12.442 47.3333 12.218 46.944C11.9993 46.5547 11.89 46.128 11.89 45.664C11.89 45.2107 11.9753 44.8187 12.146 44.488C12.322 44.152 12.5673 43.8747 12.882 43.656C13.1967 43.432 13.5727 43.256 14.01 43.128C14.4207 43.016 14.8793 42.92 15.386 42.84C15.898 42.7547 16.4153 42.6773 16.938 42.608C17.4607 42.5387 17.9487 42.472 18.402 42.408L17.89 42.704C17.906 41.936 17.7513 41.368 17.426 41C17.106 40.632 16.5513 40.448 15.762 40.448C15.2393 40.448 14.7807 40.568 14.386 40.808C13.9967 41.0427 13.722 41.4267 13.562 41.96L12.21 41.552C12.418 40.7947 12.8207 40.2 13.418 39.768C14.0153 39.336 14.802 39.12 15.778 39.12C16.562 39.12 17.234 39.2613 17.794 39.544C18.3593 39.8213 18.7647 40.2427 19.01 40.808C19.1327 41.0747 19.21 41.3653 19.242 41.68C19.274 41.9893 19.29 42.3147 19.29 42.656V48H18.026V45.928L18.322 46.12C17.9967 46.8187 17.5407 47.3467 16.954 47.704C16.3727 48.0613 15.6633 48.24 14.826 48.24ZM15.042 47.048C15.554 47.048 15.9967 46.9573 16.37 46.776C16.7487 46.5893 17.0527 46.3467 17.282 46.048C17.5113 45.744 17.6607 45.4133 17.73 45.056C17.81 44.7893 17.8527 44.4933 17.858 44.168C17.8687 43.8373 17.874 43.584 17.874 43.408L18.37 43.624C17.906 43.688 17.45 43.7493 17.002 43.808C16.554 43.8667 16.13 43.9307 15.73 44C15.33 44.064 14.97 44.1413 14.65 44.232C14.4153 44.3067 14.194 44.4027 13.986 44.52C13.7833 44.6373 13.618 44.7893 13.49 44.976C13.3673 45.1573 13.306 45.384 13.306 45.656C13.306 45.8907 13.3647 46.1147 13.482 46.328C13.6047 46.5413 13.7913 46.7147 14.042 46.848C14.298 46.9813 14.6313 47.048 15.042 47.048ZM26.194 48C25.682 48.1013 25.1753 48.1413 24.674 48.12C24.178 48.104 23.7353 48.0053 23.346 47.824C22.9567 47.6373 22.6607 47.3493 22.458 46.96C22.2873 46.6187 22.194 46.2747 22.178 45.928C22.1673 45.576 22.162 45.1787 22.162 44.736V36.96H23.586V44.672C23.586 45.024 23.5887 45.3253 23.594 45.576C23.6047 45.8267 23.6607 46.0427 23.762 46.224C23.954 46.5653 24.258 46.7653 24.674 46.824C25.0953 46.8827 25.602 46.8667 26.194 46.776V48ZM20.41 40.536V39.36H26.194V40.536H20.41ZM28.1081 37.832V36.36H29.5321V37.832H28.1081ZM28.1081 48V39.36H29.5321V48H28.1081ZM38.0845 48V43.672C38.0845 43.2613 38.0472 42.8667 37.9725 42.488C37.9032 42.1093 37.7778 41.7707 37.5965 41.472C37.4205 41.168 37.1805 40.928 36.8765 40.752C36.5778 40.576 36.1992 40.488 35.7405 40.488C35.3832 40.488 35.0578 40.5493 34.7645 40.672C34.4765 40.7893 34.2285 40.9707 34.0205 41.216C33.8125 41.4613 33.6498 41.7707 33.5325 42.144C33.4205 42.512 33.3645 42.9467 33.3645 43.448L32.4285 43.16C32.4285 42.3227 32.5778 41.6053 32.8765 41.008C33.1805 40.4053 33.6045 39.944 34.1485 39.624C34.6978 39.2987 35.3432 39.136 36.0845 39.136C36.6445 39.136 37.1218 39.224 37.5165 39.4C37.9112 39.576 38.2392 39.8107 38.5005 40.104C38.7618 40.392 38.9672 40.7173 39.1165 41.08C39.2658 41.4373 39.3698 41.8027 39.4285 42.176C39.4925 42.544 39.5245 42.8933 39.5245 43.224V48H38.0845ZM31.9245 48V39.36H33.2045V41.672H33.3645V48H31.9245ZM45.1004 52.08C44.647 52.08 44.2044 52.0107 43.7724 51.872C43.3404 51.7333 42.943 51.5227 42.5804 51.24C42.223 50.9627 41.9244 50.6107 41.6844 50.184L42.9884 49.496C43.2017 49.9173 43.503 50.224 43.8924 50.416C44.287 50.608 44.6924 50.704 45.1084 50.704C45.6577 50.704 46.1137 50.6027 46.4764 50.4C46.839 50.2027 47.1057 49.9067 47.2764 49.512C47.4524 49.1173 47.5377 48.6267 47.5324 48.04V45.68H47.7004V39.36H48.9644V48.056C48.9644 48.2907 48.9564 48.5173 48.9404 48.736C48.9297 48.9547 48.903 49.1707 48.8604 49.384C48.7484 49.9973 48.527 50.5013 48.1964 50.896C47.8657 51.296 47.439 51.592 46.9164 51.784C46.3937 51.9813 45.7884 52.08 45.1004 52.08ZM44.9964 48.24C44.191 48.24 43.5004 48.04 42.9244 47.64C42.3484 47.2347 41.903 46.688 41.5884 46C41.279 45.312 41.1244 44.536 41.1244 43.672C41.1244 42.808 41.279 42.032 41.5884 41.344C41.903 40.656 42.3484 40.1147 42.9244 39.72C43.5004 39.32 44.1884 39.12 44.9884 39.12C45.8044 39.12 46.4897 39.3173 47.0444 39.712C47.599 40.1067 48.0177 40.648 48.3004 41.336C48.5884 42.024 48.7324 42.8027 48.7324 43.672C48.7324 44.5307 48.5884 45.3067 48.3004 46C48.0177 46.688 47.599 47.2347 47.0444 47.64C46.4897 48.04 45.807 48.24 44.9964 48.24ZM45.1724 46.936C45.7537 46.936 46.231 46.7973 46.6044 46.52C46.9777 46.2373 47.2524 45.8507 47.4284 45.36C47.6097 44.864 47.7004 44.3013 47.7004 43.672C47.7004 43.032 47.6097 42.4693 47.4284 41.984C47.2524 41.4933 46.9804 41.112 46.6124 40.84C46.2444 40.5627 45.7777 40.424 45.2124 40.424C44.6257 40.424 44.1404 40.568 43.7564 40.856C43.3777 41.144 43.095 41.5333 42.9084 42.024C42.727 42.5147 42.6364 43.064 42.6364 43.672C42.6364 44.2853 42.7297 44.84 42.9164 45.336C43.103 45.8267 43.383 46.216 43.7564 46.504C44.135 46.792 44.607 46.936 45.1724 46.936Z" fill="black"/>
<path d="M9 27V23.988H1.2V21.612L6.816 9.72H9.684L4.068 21.612H9V16.932H11.544V21.612H13.26V23.988H11.544V27H9ZM15.3842 27V24.348H18.0362V27H15.3842ZM26.2234 27.36C25.3354 27.36 24.5074 27.18 23.7394 26.82C22.9794 26.452 22.3274 25.948 21.7834 25.308C21.2394 24.66 20.8514 23.916 20.6194 23.076L23.0314 22.428C23.1674 22.94 23.3994 23.384 23.7274 23.76C24.0634 24.136 24.4554 24.428 24.9034 24.636C25.3514 24.836 25.8154 24.936 26.2954 24.936C26.9274 24.936 27.4994 24.784 28.0114 24.48C28.5314 24.176 28.9394 23.768 29.2354 23.256C29.5394 22.744 29.6914 22.18 29.6914 21.564C29.6914 20.932 29.5354 20.36 29.2234 19.848C28.9194 19.336 28.5074 18.932 27.9874 18.636C27.4754 18.332 26.9114 18.18 26.2954 18.18C25.5914 18.18 24.9954 18.32 24.5074 18.6C24.0194 18.88 23.6394 19.204 23.3674 19.572L21.1834 18.804L21.7114 9.72H31.0354V12.084H22.9954L24.0154 11.136L23.5954 17.94L23.1034 17.304C23.5594 16.848 24.1034 16.5 24.7354 16.26C25.3674 16.02 25.9954 15.9 26.6194 15.9C27.6914 15.9 28.6474 16.148 29.4874 16.644C30.3354 17.14 31.0034 17.816 31.4914 18.672C31.9794 19.52 32.2234 20.484 32.2234 21.564C32.2234 22.636 31.9474 23.612 31.3954 24.492C30.8434 25.364 30.1114 26.06 29.1994 26.58C28.2874 27.1 27.2954 27.36 26.2234 27.36ZM38.7396 9.72H41.2716L36.6636 27H34.1316L38.7396 9.72ZM48.8068 27.36C47.9188 27.36 47.0908 27.18 46.3228 26.82C45.5628 26.452 44.9108 25.948 44.3668 25.308C43.8228 24.66 43.4348 23.916 43.2028 23.076L45.6148 22.428C45.7508 22.94 45.9828 23.384 46.3108 23.76C46.6468 24.136 47.0388 24.428 47.4868 24.636C47.9348 24.836 48.3988 24.936 48.8788 24.936C49.5108 24.936 50.0828 24.784 50.5948 24.48C51.1148 24.176 51.5228 23.768 51.8188 23.256C52.1228 22.744 52.2748 22.18 52.2748 21.564C52.2748 20.932 52.1188 20.36 51.8068 19.848C51.5028 19.336 51.0908 18.932 50.5708 18.636C50.0588 18.332 49.4948 18.18 48.8788 18.18C48.1748 18.18 47.5788 18.32 47.0908 18.6C46.6028 18.88 46.2228 19.204 45.9508 19.572L43.7668 18.804L44.2948 9.72H53.6188V12.084H45.5788L46.5988 11.136L46.1788 17.94L45.6868 17.304C46.1428 16.848 46.6868 16.5 47.3188 16.26C47.9508 16.02 48.5788 15.9 49.2028 15.9C50.2748 15.9 51.2308 16.148 52.0708 16.644C52.9188 17.14 53.5868 17.816 54.0748 18.672C54.5628 19.52 54.8068 20.484 54.8068 21.564C54.8068 22.636 54.5308 23.612 53.9788 24.492C53.4268 25.364 52.6948 26.06 51.7828 26.58C50.8708 27.1 49.8788 27.36 48.8068 27.36Z" fill="black"/>
</svg>
