<svg width="48" height="48" viewBox="0 0 48 48" fill="none" xmlns="http://www.w3.org/2000/svg">
<path d="M48 24C48 37.2548 37.2548 48 24 48C10.7452 48 0 37.2548 0 24C0 10.7452 10.7452 0 24 0C37.2548 0 48 10.7452 48 24Z" fill="white"/>
<path d="M13.9355 22.7744C13.3833 22.7744 12.9355 23.2221 12.9355 23.7744C12.9355 24.3267 13.3833 24.7744 13.9355 24.7744V22.7744ZM34.7717 24.4815C35.1622 24.091 35.1622 23.4578 34.7717 23.0673L28.4077 16.7033C28.0172 16.3128 27.384 16.3128 26.9935 16.7033C26.603 17.0939 26.603 17.727 26.9935 18.1176L32.6504 23.7744L26.9935 29.4313C26.603 29.8218 26.603 30.455 26.9935 30.8455C27.384 31.236 28.0172 31.236 28.4077 30.8455L34.7717 24.4815ZM13.9355 24.7744H34.0646V22.7744H13.9355V24.7744Z" fill="#1E1B1B"/>
</svg>
